# xmcd
#
# Track frame offsets: 
#        187
#        12787
#        29362
#        45600
#        56775
#        83587
#        96637
#        118087
#        137100
#        161812
#        171375
#
# Disc length: 2559 seconds
#
# Revision: 2
# Processed by: cddbd v1.5.2PL0 Copyright (c) Steve Scherf et al.
# Submitted via: ExactAudioCopyFreeDBPlugin 1.0
#
DISCID=9609fd0b
DTITLE=Barrence Whitfield - Ow!  Ow!  Ow!
DYEAR=1988
DGENRE=Rhythm and Blues
TTITLE0=Rockin' the Mule
TTITLE1=Madhouse
TTITLE2=Apology Line
TTITLE3=I Don't Dig Your Noise
TTITLE4=Living Proof
TTITLE5=Stop Twistin' My Arm
TTITLE6=Girl from Outer Space
TTITLE7=Runnin' and Hidin'
TTITLE8=The Blues is a Thief
TTITLE9=Ain't She Wild
TTITLE10=Chillin'
EXTD=1988, Rounder Records Corp.\nProduced by Milton Reder and Mike Co
EXTD=stello\n\nLorne Entress: drums, vocals\nBruce Katz: piano, organ\n
EXTD=Milton Reder: guitars, vocals\nRichie Robertson: bass, vocals\nDa
EXTD=vid Sholl: saxophone\nBarrence Whitfield: vocals\nMike Costello: 
EXTD=harmonica
EXTT0=
EXTT1=
EXTT2=
EXTT3=
EXTT4=
EXTT5=
EXTT6=
EXTT7=
EXTT8=
EXTT9=
EXTT10=
PLAYORDER=
